<svg id="Layer_5" enable-background="new 0 0 64 64" height="512" viewBox="0 0 64 64" width="512" xmlns="http://www.w3.org/2000/svg"><path d="m28 36h2v2h-2z"/><path d="m24 36h2v2h-2z"/><path d="m20 36h2v2h-2z"/><path d="m15 15c-.551 0-1-.449-1-1h-2c0 1.654 1.346 3 3 3v2h2v-2h3v-3c0-1.654-1.346-3-3-3h-2c-.551 0-1-.449-1-1v-1h3c.551 0 1 .449 1 1h2c0-1.654-1.346-3-3-3v-2h-2v2h-3v3c0 1.654 1.346 3 3 3h2c.551 0 1 .449 1 1v1z"/><path d="m63 40c0-2.206-1.794-4-4-4h-.414l-.586.586-8.586-8.586.586-.586v-.414c0-1.005-.385-1.914-1-2.618v-13.382c0-2.757-2.243-5-5-5h-18.792c-1.966-3.006-5.356-5-9.208-5s-7.242 1.994-9.208 5h-.792c-2.757 0-5 2.243-5 5v26c0 2.757 2.243 5 5 5h11.612l-1.333 4h-2.279c-2.206 0-4 1.794-4 4v4h16.587l-2.465 2.465c-.724.723-1.122 1.683-1.122 2.707 0 2.11 1.717 3.828 3.829 3.828 1.022 0 1.983-.398 2.707-1.121l16.464-16.465 1.586 1.586-.586.586v.414c0 .749.22 1.443.579 2.043-2.557.217-4.579 2.344-4.579 4.957v3h20v-3c0-2.757-2.243-5-5-5h-4.586l9.586-9.586zm-25.378-3.036c-.8-.153-1.432-.785-1.585-1.586l10.342-10.342c.8.153 1.432.786 1.585 1.585zm-21.622-33.964c4.962 0 9 4.038 9 9s-4.038 9-9 9-9-4.038-9-9 4.038-9 9-9zm20 23c.551 0 1 .449 1 1s-.449 1-1 1-1-.449-1-1 .449-1 1-1zm-.867-2h-10.379l-1.16-4.061c.609-.582 1.151-1.231 1.614-1.939h10.782zm-10.133 3c0 .551-.449 1-1 1s-1-.449-1-1 .449-1 1-1 1 .449 1 1zm-19.245-18.975c-.481 1.235-.755 2.572-.755 3.975 0 6.065 4.935 11 11 11 2.17 0 4.189-.64 5.895-1.728l.859 3.008c-1.032.474-1.754 1.511-1.754 2.72 0 1.654 1.346 3 3 3s3-1.346 3-3c0-.352-.072-.686-.184-1h6.369c-.113.314-.185.648-.185 1 0 1.654 1.346 3 3 3s3-1.346 3-3c0-1.257-.779-2.333-1.879-2.778l1.175-8.222h3.704c1.654 0 3-1.346 3-3s-1.346-3-3-3h-2.266c-1.483 0-2.76 1.107-2.969 2.576l-.489 3.424h-10.04c.487-1.242.764-2.588.764-4s-.277-2.758-.764-4h17.764c1.654 0 3 1.346 3 3v12.142c-.322-.084-.653-.142-1-.142h-.414l-9 9h-33.586v-21c0-1.57 1.217-2.848 2.755-2.975zm32.827 5.975.163-1.142c.07-.489.495-.858.989-.858h2.266c.551 0 1 .449 1 1s-.449 1-1 1zm-35.582 23v-3h31.586l-.586.586v.414c0 2.206 1.794 4 4 4h.414l.586-.586 1.586 1.586h-34.586c-1.654 0-3-1.346-3-3zm31.586 9h-.865l-1.333-4h6.199zm-14.865-4h10.558l1.333 4h-13.224zm-7.721 10v-2c0-1.103.897-2 2-2h18.586l-4 4zm16.122 8.465c-.346.345-.805.535-1.293.535-1.009 0-1.829-.82-1.829-1.828 0-.481.195-.952.536-1.293l16.464-16.465 2.586 2.586zm12.292-23.465 7.586-7.586 8.586 8.586-7.586 7.586zm17.586 15c1.654 0 3 1.346 3 3v1h-16v-1c0-1.654 1.346-3 3-3h3 .414zm-7.378-2.036c-.8-.153-1.432-.785-1.585-1.586l10.342-10.342c.8.153 1.432.785 1.585 1.586z"/><path d="m47.464 36.465h2v2h-2z" transform="matrix(.707 -.707 .707 .707 -12.297 45.243)"/><path d="m44.672 33.722h2v1.899h-2z" transform="matrix(.707 -.707 .707 .707 -11.14 42.45)"/><path d="m50.293 39.293h2v2h-2z" transform="matrix(.707 -.707 .707 .707 -13.468 48.071)"/><path d="m5 28h2v2h-2z"/><path d="m9 28h2v2h-2z"/><path d="m13 28h2v2h-2z"/><path d="m5 24h10v2h-10z"/></svg>