<svg height="464pt" viewBox="-1 0 464 464" width="464pt" xmlns="http://www.w3.org/2000/svg"><path d="m72 411.03125c24.710938-32.121094 72-100 72-131.03125 0-39.765625-32.234375-72-72-72s-72 32.234375-72 72c0 31.054688 47.289062 98.921875 72 131.03125zm0-171.03125c17.671875 0 32 14.328125 32 32s-14.328125 32-32 32-32-14.328125-32-32 14.328125-32 32-32zm0 0"/><path d="m400 131.511719c17.457031-21.464844 48-63.199219 48-83.511719 0-26.507812-21.492188-48-48-48s-48 21.492188-48 48c0 20.296875 30.535156 62.046875 48 83.511719zm0-115.511719c13.253906 0 24 10.746094 24 24s-10.746094 24-24 24-24-10.746094-24-24 10.746094-24 24-24zm0 0"/><path d="m392 184h8c4.417969 0 8-3.582031 8-8s-3.582031-8-8-8h-8c-4.417969 0-8 3.582031-8 8s3.582031 8 8 8zm0 0"/><path d="m288 232h16.175781c4.417969 0 8-3.582031 8-8s-3.582031-8-8-8h-16.304687c-2.113282.003906-4.140625.851562-5.628906 2.351562-1.488282 1.5-2.320313 3.535157-2.304688 5.648438.027344 4.429688 3.632812 8.003906 8.0625 8zm0 0"/><path d="m377.6875 224c0 4.417969 3.582031 8 8 8h16.296875c4.417969 0 8-3.582031 8-8s-3.582031-8-8-8h-16.296875c-4.417969 0-8 3.582031-8 8zm0 0"/><path d="m343.097656 184h16.300782c4.417968 0 8-3.582031 8-8s-3.582032-8-8-8h-16.300782c-4.421875 0-8 3.582031-8 8s3.578125 8 8 8zm0 0"/><path d="m129.71875 448h-16.304688c-4.417968 0-8 3.582031-8 8s3.582032 8 8 8h16.304688c4.417969 0 8-3.582031 8-8s-3.582031-8-8-8zm0 0"/><path d="m264.503906 212.960938c.558594 0 1.113282-.058594 1.65625-.175782 4.320313-.910156 7.085938-5.144531 6.183594-9.464844-.226562-1.09375-.339844-2.203124-.34375-3.320312-.003906-2.53125.59375-5.023438 1.742188-7.28125 2.003906-3.9375.4375-8.753906-3.503907-10.757812-3.9375-2.003907-8.753906-.4375-10.757812 3.503906-3.316407 6.511718-4.300781 13.96875-2.792969 21.121094.769531 3.703124 4.03125 6.367187 7.816406 6.375zm0 0"/><path d="m336.800781 232h16.304688c4.417969 0 8-3.582031 8-8s-3.582031-8-8-8h-16.304688c-4.417969 0-8 3.582031-8 8s3.582031 8 8 8zm0 0"/><path d="m294.191406 184h16.304688c4.417968 0 8-3.582031 8-8s-3.582032-8-8-8h-16.304688c-4.417968 0-8 3.582031-8 8s3.582032 8 8 8zm0 0"/><path d="m215.136719 323.015625c.632812.164063 1.289062.242187 1.941406.242187 3.671875-.007812 6.867187-2.507812 7.753906-6.066406 1.035157-4.113281 2.984375-7.941406 5.703125-11.199218 1.921875-2.179688 2.507813-5.226563 1.539063-7.960938-.96875-2.738281-3.347657-4.734375-6.210938-5.21875-2.859375-.480469-5.761719.625-7.574219 2.890625-4.285156 5.113281-7.355468 11.128906-8.976562 17.601563-.519531 2.058593-.195312 4.242187.898438 6.0625 1.089843 1.824218 2.863281 3.136718 4.925781 3.648437zm0 0"/><path d="m373.183594 447.664062c-1.71875.226563-3.449219.339844-5.183594.335938h-10.070312c-4.421876 0-8 3.582031-8 8s3.578124 8 8 8h10.070312c2.40625 0 4.8125-.15625 7.199219-.464844 4.382812-.566406 7.476562-4.578125 6.914062-8.960937-.566406-4.382813-4.578125-7.476563-8.960937-6.910157zm0 0"/><path d="m384.328125 354.398438c-5.292969-1.601563-10.796875-2.410157-16.328125-2.398438h-2.097656c-4.417969 0-8 3.582031-8 8s3.582031 8 8 8h2.097656c3.953125 0 7.886719.582031 11.671875 1.726562.753906.234376 1.539063.351563 2.328125.351563 3.964844.003906 7.335938-2.898437 7.921875-6.820313.582031-3.925781-1.796875-7.683593-5.59375-8.832031zm0 0"/><path d="m367.265625 296c4.417969 0 8-3.582031 8-8s-3.582031-8-8-8h-16.296875c-4.417969 0-8 3.582031-8 8s3.582031 8 8 8zm0 0"/><path d="m415.070312 420.390625c-4.023437-1.8125-8.757812-.023437-10.574218 4-1.863282 4.136719-4.421875 7.925781-7.558594 11.203125-2.054688 2.050781-2.835938 5.050781-2.042969 7.839844.792969 2.792968 3.035157 4.9375 5.855469 5.601562 2.824219.667969 5.789062-.246094 7.746094-2.386718 4.398437-4.585938 7.984375-9.894532 10.59375-15.6875 1.804687-4.027344.007812-8.757813-4.019532-10.570313zm0 0"/><path d="m456.96875 257.40625c-2.035156-.601562-4.226562-.371094-6.09375.644531-1.863281 1.015625-3.25 2.730469-3.851562 4.765625-1.175782 3.921875-3.324219 7.484375-6.246094 10.351563-3.160156 3.09375-3.214844 8.160156-.121094 11.320312 3.09375 3.160157 8.160156 3.210938 11.320312.121094 4.875-4.777344 8.453126-10.714844 10.398438-17.257813.605469-2.035156.371094-4.226562-.640625-6.09375-1.015625-1.863281-2.730469-3.25-4.765625-3.851562zm0 0"/><path d="m447.839844 242.640625c3.160156.003906 6.023437-1.855469 7.3125-4.738281 1.285156-2.882813.757812-6.253906-1.351563-8.605469-4.566406-5.078125-10.347656-8.910156-16.800781-11.136719-4.179688-1.4375-8.730469.789063-10.167969 4.96875-1.4375 4.179688.789063 8.730469 4.96875 10.167969 3.875 1.332031 7.34375 3.632813 10.078125 6.6875 1.519532 1.691406 3.6875 2.65625 5.960938 2.65625zm0 0"/><path d="m333.304688 352h-16.296876c-4.417968 0-8 3.582031-8 8s3.582032 8 8 8h16.296876c4.417968 0 8-3.582031 8-8s-3.582032-8-8-8zm0 0"/><path d="m416.167969 280h-16.304688c-4.417969 0-8 3.582031-8 8s3.582031 8 8 8h16.304688c4.417969 0 8-3.582031 8-8s-3.582031-8-8-8zm0 0"/><path d="m178.617188 448h-16.296876c-4.417968 0-8 3.582031-8 8s3.582032 8 8 8h16.296876c4.417968 0 8-3.582031 8-8s-3.582032-8-8-8zm0 0"/><path d="m414.34375 376.558594c-2.496094-3.652344-7.480469-4.589844-11.136719-2.09375-3.652343 2.496094-4.589843 7.480468-2.09375 11.136718 2.554688 3.742188 4.449219 7.894532 5.597657 12.277344.625 2.863282 2.765624 5.15625 5.582031 5.976563 2.8125.820312 5.847656.035156 7.914062-2.046875 2.0625-2.078125 2.824219-5.121094 1.984375-7.929688-1.601562-6.179687-4.253906-12.039062-7.847656-17.320312zm0 0"/><path d="m239.617188 349.128906c-3.800782-1.894531-7.125-4.613281-9.738282-7.960937-2.710937-3.492188-7.738281-4.121094-11.226562-1.410157-3.492188 2.707032-4.121094 7.734376-1.414063 11.226563 4.097657 5.257813 9.324219 9.527344 15.296875 12.488281 3.941406 1.839844 8.632813.191406 10.558594-3.710937 1.925781-3.898438.378906-8.625-3.476562-10.632813zm0 0"/><path d="m227.519531 448h-16.320312c-4.417969 0-8 3.582031-8 8s3.582031 8 8 8h16.320312c4.417969 0 8-3.582031 8-8s-3.582031-8-8-8zm0 0"/><path d="m325.328125 448h-16.296875c-4.417969 0-8 3.582031-8 8s3.582031 8 8 8h16.296875c4.417969 0 8-3.582031 8-8s-3.582031-8-8-8zm0 0"/><path d="m269.464844 296c4.417968 0 8-3.582031 8-8s-3.582032-8-8-8h-16.296875c-4.417969 0-8 3.582031-8 8s3.582031 8 8 8zm0 0"/><path d="m318.398438 296c4.417968 0 8-3.582031 8-8s-3.582032-8-8-8h-16.335938c-4.417969 0-8 3.582031-8 8s3.582031 8 8 8zm0 0"/><path d="m284.40625 352h-16.300781c-4.417969 0-8 3.582031-8 8s3.582031 8 8 8h16.300781c4.421875 0 8-3.582031 8-8s-3.578125-8-8-8zm0 0"/><path d="m276.433594 448h-16.304688c-4.417968 0-8 3.582031-8 8s3.582032 8 8 8h16.304688c4.417968 0 8-3.582031 8-8s-3.582032-8-8-8zm0 0"/><path d="m80 448h-8c-4.417969 0-8 3.582031-8 8s3.582031 8 8 8h8c4.417969 0 8-3.582031 8-8s-3.582031-8-8-8zm0 0"/></svg>