<?xml version="1.0" encoding="iso-8859-1"?>
<!-- Generator: Adobe Illustrator 19.0.0, SVG Export Plug-In . SVG Version: 6.00 Build 0)  -->
<svg version="1.1" id="Layer_1" xmlns="http://www.w3.org/2000/svg" xmlns:xlink="http://www.w3.org/1999/xlink" x="0px" y="0px"
	 viewBox="0 0 512 512" style="enable-background:new 0 0 512 512;" xml:space="preserve">
<g>
	<g>
		<path d="M426.667,192c-7.875,0-15.26,2.146-21.604,5.885C402.677,176.594,384.573,160,362.667,160
			c-10.417,0-19.99,3.771-27.427,10.052c-7.469-12.406-21.063-20.719-36.573-20.719c-7.76,0-15.052,2.083-21.333,5.729V42.667
			C277.333,19.135,258.198,0,234.667,0S192,19.135,192,42.667v285.479c0,5.375-3.542,8.135-5.063,9.073s-5.615,2.865-10.375,0.469
			l-68.5-34.25c-6.24-3.125-13.229-4.771-20.208-4.771c-24.917,0-45.187,20.271-45.187,45.188V352c0,2.958,1.229,5.781,3.385,7.802
			l123.115,114.906C194.937,498.75,228.542,512,263.781,512h66.885c76.458,0,138.667-62.208,138.667-138.667V234.667
			C469.333,211.135,450.198,192,426.667,192z M448,373.333c0,64.698-52.635,117.333-117.333,117.333h-66.885
			c-29.813,0-58.25-11.208-80.052-31.563L64,347.365v-3.51C64,330.698,74.698,320,87.854,320c3.677,0,7.375,0.875,10.667,2.521
			l68.5,34.25c9.99,5.01,21.635,4.458,31.135-1.396c9.5-5.875,15.177-16.052,15.177-27.229V42.667
			c0-11.76,9.573-21.333,21.333-21.333c11.76,0,21.333,9.573,21.333,21.333v160c0,5.896,4.771,10.667,10.667,10.667
			c5.896,0,10.667-4.771,10.667-10.667V192c0-11.76,9.573-21.333,21.333-21.333c11.76,0,21.333,9.573,21.333,21.333v10.667
			c0,0.021,0,0.042,0,0.063v0.01c0.042,5.854,4.802,10.594,10.667,10.594c5.896,0,10.667-4.771,10.667-10.667V202.5
			c0.083-11.677,9.646-21.167,21.333-21.167c11.76,0,21.333,9.573,21.333,21.333v32c0,5.896,4.771,10.667,10.667,10.667
			s10.667-4.771,10.667-10.667c0-11.76,9.573-21.333,21.333-21.333S448,222.906,448,234.667V373.333z"/>
	</g>
</g>
<g>
</g>
<g>
</g>
<g>
</g>
<g>
</g>
<g>
</g>
<g>
</g>
<g>
</g>
<g>
</g>
<g>
</g>
<g>
</g>
<g>
</g>
<g>
</g>
<g>
</g>
<g>
</g>
<g>
</g>
</svg>
