<?xml version="1.0"?>
<svg xmlns="http://www.w3.org/2000/svg" viewBox="0 0 64 64" width="512" height="512"><g id="Outline"><g><path d="M61,26H41.18a1,1,0,0,0,0,2H60V48H30V28h.9a1,1,0,0,0,0-2H29a1,1,0,0,0-1,1V59H19.82A3,3,0,1,0,14,58a3,3,0,0,0,.14.86A3,3,0,0,1,12,56V54l.33,0h2.34A3.34,3.34,0,0,0,18,50.67V48.33A3.34,3.34,0,0,0,14.67,45H12.33A1.34,1.34,0,0,1,11,43.67V34.33A1.34,1.34,0,0,1,12.33,33h2.34A3.34,3.34,0,0,0,18,29.67V27.33A3.34,3.34,0,0,0,14.67,24H12.33A10.35,10.35,0,0,0,2,34.33V37a1,1,0,0,0,2,0V34.33A8.34,8.34,0,0,1,12.33,26h2.34A1.34,1.34,0,0,1,16,27.33v2.34A1.34,1.34,0,0,1,14.67,31H12.33A3.34,3.34,0,0,0,9,34.33v9.34A3.34,3.34,0,0,0,12.33,47h2.34A1.34,1.34,0,0,1,16,48.33v2.34A1.34,1.34,0,0,1,14.67,52H12.33A8.34,8.34,0,0,1,4,43.67V41a1,1,0,0,0-2,0v2.67a10.33,10.33,0,0,0,8,10V56a5,5,0,0,0,5,5H28a1,1,0,0,0,1,1H61a1,1,0,0,0,1-1V27A1,1,0,0,0,61,26ZM17,57a1,1,0,1,1-1,1A1,1,0,0,1,17,57Zm37-1V54h6v2Zm-8,0V54h2v2Zm-4,0V54h2v2Zm-4,0V54h2v2Zm-8-2h2v2H30Zm4,0h2v2H34Zm16,0h2v2H50Zm10-2H58V50h2Zm-4,0H54V50h2Zm-4,0H50V50h2Zm-4,0H46V50h2Zm-4,0H42V50h2Zm-4,0H38V50h2Zm-4,0H34V50h2Zm-4,0H30V50h2Zm-2,6h2v2H30Zm4,0h2v2H34Zm4,0H52v2H38Zm16,0h2v2H54Zm6,2H58V58h2Z"/><path d="M45,43a1,1,0,0,0,.94-.65l3-8a1,1,0,0,0-1.88-.7L45,39.15l-2.06-5.5a1,1,0,1,0-1.88.7l3,8A1,1,0,0,0,45,43Z"/><path d="M54,33H52a1,1,0,0,0-1,1v8a1,1,0,0,0,2,0V39h1a1,1,0,0,1,1,1v2a1,1,0,0,0,2,0V40a3,3,0,0,0-.78-2A3,3,0,0,0,57,36,3,3,0,0,0,54,33Zm-1,4V35h1a1,1,0,0,1,0,2Z"/><path d="M38,35a1,1,0,0,0,0-2H34a1,1,0,0,0,0,2h1v6H34a1,1,0,0,0,0,2h4a1,1,0,0,0,0-2H37V35Z"/><path d="M18.54,44a1,1,0,0,0,.7.29A1,1,0,0,0,20,44a7,7,0,0,0,0-9.9,1,1,0,1,0-1.41,1.41,5,5,0,0,1,0,7.08A1,1,0,0,0,18.54,44Z"/><path d="M15.71,41.12a1,1,0,0,0,1.41,0,3,3,0,0,0,0-4.24,1,1,0,1,0-1.41,1.41,1,1,0,0,1,0,1.42A1,1,0,0,0,15.71,41.12Z"/><path d="M21.36,31.22a1,1,0,0,0,0,1.42,9,9,0,0,1,0,12.72,1,1,0,0,0,0,1.42,1,1,0,0,0,.71.29,1,1,0,0,0,.71-.29,11,11,0,0,0,0-15.56A1,1,0,0,0,21.36,31.22Z"/><path d="M30,18h4a1,1,0,0,0,1-1V15h2a1,1,0,0,0,1-1V10a1,1,0,0,0-1-1H35V7a1,1,0,0,0-1-1H30a1,1,0,0,0-1,1V9H27a1,1,0,0,0-1,1v4a1,1,0,0,0,1,1h2v2A1,1,0,0,0,30,18Zm-2-5V11h2a1,1,0,0,0,1-1V8h2v2a1,1,0,0,0,1,1h2v2H34a1,1,0,0,0-1,1v2H31V14a1,1,0,0,0-1-1Z"/><path d="M22,22H32l3.07,8.34A1,1,0,0,0,36,31h0a1,1,0,0,0,.93-.63L40.22,22H42a3,3,0,0,0,3-3V14a1,1,0,0,0-2,0v5a1,1,0,0,1-1,1H39.54a1,1,0,0,0-.93.63L36,27.19l-2.4-6.53a1,1,0,0,0-.94-.66H22a1,1,0,0,1-1-1V5a1,1,0,0,1,1-1H42a1,1,0,0,1,1,1v5a1,1,0,0,0,2,0V5a3,3,0,0,0-3-3H22a3,3,0,0,0-3,3V19A3,3,0,0,0,22,22Z"/></g></g></svg>
